<svg width="240" height="240" viewBox="0 0 120 120" fill="none" xmlns="http://www.w3.org/2000/svg">
  <defs>
    <radialGradient id="blades" cx="50%" cy="50%" r="62%">
      <stop offset="0%" stop-color="#ffffff"/>
      <stop offset="26%" stop-color="#bfdbfe"/>
      <stop offset="64%" stop-color="#3b82f6"/>
      <stop offset="100%" stop-color="#1d4ed8"/>
    </radialGradient>
    <radialGradient id="core" cx="50%" cy="50%" r="50%">
      <stop offset="0%" stop-color="#ffffff"/>
      <stop offset="55%" stop-color="#dbeafe"/>
      <stop offset="100%" stop-color="#60a5fa"/>
    </radialGradient>
  </defs>
  <g fill="url(#blades)">
    <path d="M60 60 C 64 41 81 33 99 41 C 90 51 76 55 60 60 Z" transform="rotate(0 60 60)"/>
    <path d="M60 60 C 64 41 81 33 99 41 C 90 51 76 55 60 60 Z" transform="rotate(60 60 60)"/>
    <path d="M60 60 C 64 41 81 33 99 41 C 90 51 76 55 60 60 Z" transform="rotate(120 60 60)"/>
    <path d="M60 60 C 64 41 81 33 99 41 C 90 51 76 55 60 60 Z" transform="rotate(180 60 60)"/>
    <path d="M60 60 C 64 41 81 33 99 41 C 90 51 76 55 60 60 Z" transform="rotate(240 60 60)"/>
    <path d="M60 60 C 64 41 81 33 99 41 C 90 51 76 55 60 60 Z" transform="rotate(300 60 60)"/>
  </g>
  <circle cx="60" cy="60" r="9" fill="url(#core)"/>
</svg>
